<svg width="23" height="24" viewBox="0 0 23 24" fill="content" xmlns="http://www.w3.org/2000/svg">
<g id="pajamas:comparison">
<path id="Vector" fill-rule="evenodd" clip-rule="evenodd" d="M6.93697 5.24999C6.93697 5.64781 6.7962 6.02934 6.54563 6.31065C6.29505 6.59195 5.9552 6.74999 5.60084 6.74999C5.24647 6.74999 4.90662 6.59195 4.65605 6.31065C4.40547 6.02934 4.2647 5.64781 4.2647 5.24999C4.2647 4.85216 4.40547 4.47063 4.65605 4.18933C4.90662 3.90802 5.24647 3.74999 5.60084 3.74999C5.9552 3.74999 6.29505 3.90802 6.54563 4.18933C6.7962 4.47063 6.93697 4.85216 6.93697 5.24999ZM6.60294 8.82899C7.36461 8.56019 8.01539 7.99412 8.43744 7.23326C8.8595 6.47239 9.02495 5.56702 8.90384 4.68106C8.78272 3.79509 8.38304 2.98709 7.77717 2.40333C7.17129 1.81957 6.39925 1.49864 5.60084 1.49864C4.80242 1.49864 4.03038 1.81957 3.42451 2.40333C2.81863 2.98709 2.41895 3.79509 2.29784 4.68106C2.17672 5.56702 2.34217 6.47239 2.76423 7.23326C3.18629 7.99412 3.83706 8.56019 4.59873 8.82899V15.75C4.59873 16.844 4.98585 17.8932 5.67493 18.6668C6.36401 19.4404 7.2986 19.875 8.2731 19.875H9.11353L8.48555 20.58C8.38988 20.6838 8.31359 20.808 8.26113 20.9453C8.20867 21.0826 8.18109 21.2302 8.18 21.3796C8.17891 21.5289 8.20432 21.6771 8.25477 21.8153C8.30521 21.9535 8.37967 22.0791 8.47381 22.1847C8.56794 22.2903 8.67986 22.3737 8.80304 22.4302C8.92622 22.4867 9.05819 22.5151 9.19124 22.5138C9.3243 22.5124 9.45578 22.4813 9.57802 22.4223C9.70025 22.3632 9.81079 22.2775 9.90319 22.17L12.2414 19.545L12.9496 18.75L12.2414 17.955L9.90319 15.33C9.8104 15.2249 9.69999 15.1415 9.57833 15.0846C9.45667 15.0277 9.32617 14.9983 9.19437 14.9983C9.06257 14.9983 8.93207 15.0277 8.81041 15.0846C8.68875 15.1415 8.57834 15.2249 8.48555 15.33C8.29789 15.5409 8.19248 15.8269 8.19248 16.125C8.19248 16.4231 8.29789 16.709 8.48555 16.92L9.11353 17.625H8.2731C7.35117 17.625 6.60294 16.785 6.60294 15.75V8.82899ZM13.3237 1.82999C13.4154 1.71946 13.5261 1.6308 13.649 1.56931C13.7719 1.50783 13.9046 1.47476 14.0392 1.4721C14.1737 1.46943 14.3074 1.49722 14.4321 1.5538C14.5569 1.61038 14.6703 1.6946 14.7654 1.80143C14.8606 1.90826 14.9356 2.03551 14.986 2.17559C15.0364 2.31567 15.0612 2.46572 15.0588 2.61677C15.0564 2.76782 15.027 2.91679 14.9722 3.05479C14.9174 3.19279 14.8385 3.31699 14.74 3.41999L14.112 4.12499H14.9538C15.9283 4.12499 16.8629 4.55958 17.552 5.33317C18.241 6.10676 18.6281 7.15597 18.6281 8.24999V15.171C19.3898 15.4398 20.0406 16.0059 20.4627 16.7667C20.8847 17.5276 21.0502 18.433 20.929 19.3189C20.8079 20.2049 20.4083 21.0129 19.8024 21.5966C19.1965 22.1804 18.4245 22.5013 17.626 22.5013C16.8276 22.5013 16.0556 22.1804 15.4497 21.5966C14.8438 21.0129 14.4442 20.2049 14.323 19.3189C14.2019 18.433 14.3674 17.5276 14.7894 16.7667C15.2115 16.0059 15.8623 15.4398 16.6239 15.171V8.24999C16.6239 7.21499 15.8757 6.37499 14.9538 6.37499H14.112L14.74 7.07999C14.8385 7.18298 14.9174 7.30718 14.9722 7.44518C15.027 7.58318 15.0564 7.73215 15.0588 7.8832C15.0612 8.03426 15.0364 8.1843 14.986 8.32438C14.9356 8.46447 14.8606 8.59172 14.7654 8.69854C14.6703 8.80537 14.5569 8.88959 14.4321 8.94617C14.3074 9.00275 14.1737 9.03054 14.0392 9.02787C13.9046 9.02521 13.7719 8.99215 13.649 8.93066C13.5261 8.86917 13.4154 8.78052 13.3237 8.66999L10.9855 6.04499L10.2773 5.24999L10.9855 4.45499L13.3237 1.82999ZM17.626 20.25C17.9804 20.25 18.3203 20.092 18.5708 19.8106C18.8214 19.5293 18.9622 19.1478 18.9622 18.75C18.9622 18.3522 18.8214 17.9706 18.5708 17.6893C18.3203 17.408 17.9804 17.25 17.626 17.25C17.2717 17.25 16.9318 17.408 16.6813 17.6893C16.4307 17.9706 16.2899 18.3522 16.2899 18.75C16.2899 19.1478 16.4307 19.5293 16.6813 19.8106C16.9318 20.092 17.2717 20.25 17.626 20.25Z" fill="content"/>
</g>
</svg>
